<svg xmlns="http://www.w3.org/2000/svg" xmlns:xlink="http://www.w3.org/1999/xlink" width="315" height="136" viewBox="0 0 315 136"><defs><style>.a{fill:#fff;stroke:#707070;}.b{clip-path:url(#a);}.c{fill:#ffd888;}.d{fill:#ff973b;}.e{fill:none;stroke:#e68936;stroke-width:2px;}.f{fill:#d65600;}.g{fill:#bf4d00;}.h{fill:#e68936;}.i{fill:#ff761a;}.j{fill:#d1d3d4;}.k{fill:#96c9ef;}.l{fill:#7fbdec;}.m{fill:#f1f2f2;}.n{filter:url(#d);}.o{filter:url(#b);}</style><clipPath id="a"><rect class="a" width="315" height="136"/></clipPath><filter id="b" x="-30" y="-27" width="325" height="196" filterUnits="userSpaceOnUse"><feOffset dy="3" input="SourceAlpha"/><feGaussianBlur stdDeviation="10" result="c"/><feFlood flood-color="#ff973b" flood-opacity="0.161"/><feComposite operator="in" in2="c"/><feComposite in="SourceGraphic"/></filter><filter id="d" x="153.051" y="-90" width="180.898" height="181" filterUnits="userSpaceOnUse"><feOffset dy="3" input="SourceAlpha"/><feGaussianBlur stdDeviation="10" result="e"/><feFlood flood-color="#ff761a" flood-opacity="0.161"/><feComposite operator="in" in2="e"/><feComposite in="SourceGraphic"/></filter></defs><g class="b"><rect class="c" width="315" height="136"/><g class="o" transform="matrix(1, 0, 0, 1, 0, 0)"><path class="d" d="M-1366-617V-753h247.829A142.383,142.383,0,0,1-1101-685a142.379,142.379,0,0,1-17.171,68Z" transform="translate(1366 753)"/></g><g transform="translate(0 -4)"><line class="e" y2="8" transform="translate(290 63)"/><line class="e" y2="8" transform="translate(290 88)"/><line class="e" x1="8" transform="translate(299 80)"/><line class="e" x1="8" transform="translate(275 81)"/><line class="e" x1="6" y1="6" transform="translate(278 69)"/><line class="e" y1="6" x2="6" transform="translate(297 69)"/><line class="e" x2="6" y2="6" transform="translate(297 86)"/><line class="e" x1="6" y2="6" transform="translate(278 86)"/><circle class="f" cx="11.5" cy="11.5" r="11.5" transform="translate(279 69)"/><path class="g" d="M-1373.5-803a11.437,11.437,0,0,1-9.07-4.43A11.387,11.387,0,0,0-1375.5-805a11.513,11.513,0,0,0,11.5-11.5,11.387,11.387,0,0,0-2.43-7.072A11.437,11.437,0,0,1-1362-814.5a11.425,11.425,0,0,1-3.368,8.132A11.425,11.425,0,0,1-1373.5-803Z" transform="translate(1664 895)"/><ellipse class="h" cx="2" cy="1.5" rx="2" ry="1.5" transform="translate(288 62)"/><ellipse class="h" cx="2" cy="1.5" rx="2" ry="1.5" transform="translate(308.5 78) rotate(90)"/><ellipse class="h" cx="2" cy="1.5" rx="2" ry="1.5" transform="translate(276.5 79) rotate(90)"/><ellipse class="h" cx="2" cy="1.5" rx="2" ry="1.5" transform="translate(288 95)"/><ellipse class="h" cx="2" cy="1.5" rx="2" ry="1.5" transform="translate(278.299 89.018) rotate(60)"/><ellipse class="h" cx="2" cy="1.5" rx="2" ry="1.5" transform="translate(280.299 68.518) rotate(120)"/><ellipse class="h" cx="2" cy="1.5" rx="2" ry="1.5" transform="translate(303.299 67.018) rotate(60)"/><ellipse class="h" cx="2" cy="1.5" rx="2" ry="1.5" transform="translate(305.299 90.518) rotate(120)"/></g><g class="n" transform="matrix(1, 0, 0, 1, 0, 0)"><path class="i" d="M-3073.5-1805a60.158,60.158,0,0,1-23-4.527,60.3,60.3,0,0,1-18.945-12.378,60.381,60.381,0,0,1-13.083-18.426,60.02,60.02,0,0,1-5.418-22.669h120.9a60.021,60.021,0,0,1-5.418,22.669,60.383,60.383,0,0,1-13.083,18.426,60.3,60.3,0,0,1-18.945,12.378A60.158,60.158,0,0,1-3073.5-1805Zm11-120h-22.014a61.046,61.046,0,0,1,11.012-1,61.036,61.036,0,0,1,11,1Z" transform="translate(3317 1863)"/></g><g transform="translate(157.796 45.832) rotate(-30)"><path class="j" d="M9.86,46.2a9.86,9.86,0,1,1,0-19.72,1.1,1.1,0,0,1,1.1,1.1v17.53A1.1,1.1,0,0,1,9.86,46.2Zm-1.1-17.452a7.669,7.669,0,0,0,0,15.183Zm0,0" transform="translate(0 -23.197)"/><path class="j" d="M424.819,46.2a1.1,1.1,0,0,1-1.1-1.1V27.58a1.1,1.1,0,0,1,1.1-1.1,9.86,9.86,0,1,1,0,19.72Zm1.1-17.452V43.936a7.669,7.669,0,0,0,0-15.183Zm0,0" transform="translate(-371.134 -23.197)"/><path class="k" d="M110.063,13.147h6.574V2.191A2.191,2.191,0,0,0,114.445,0H72.812a2.191,2.191,0,0,0-2.191,2.191V13.147Zm0,0" transform="translate(-61.856)"/><path class="l" d="M110.063,105.93H70.621v10.956a2.191,2.191,0,0,0,2.191,2.191h41.632a2.191,2.191,0,0,0,2.191-2.191V105.93Zm0,0" transform="translate(-61.856 -92.783)"/><path class="m" d="M148.722,99.3H115.854a1.1,1.1,0,1,1,0-2.191h32.868a1.1,1.1,0,1,1,0,2.191Zm0,0" transform="translate(-100.515 -85.054)"/><path class="m" d="M148.722,134.605H115.854a1.1,1.1,0,1,1,0-2.191h32.868a1.1,1.1,0,1,1,0,2.191Zm0,0" transform="translate(-100.515 -115.98)"/><path class="m" d="M148.722,169.918H115.854a1.1,1.1,0,1,1,0-2.191h32.868a1.1,1.1,0,1,1,0,2.191Zm0,0" transform="translate(-100.515 -146.91)"/></g></g></svg>